<svg width="40" height="32" viewBox="0 0 40 32" fill="none" xmlns="http://www.w3.org/2000/svg">
<path d="M1.14286 26.2857H18.2857V29.7143H13.7143V32H25.1429V29.7143H20.5714V26.2857H38.8571C39.4889 26.2857 40 25.7746 40 25.1429V1.14286C40 0.511143 39.4889 0 38.8571 0H1.14286C0.511143 0 0 0.511143 0 1.14286V25.1429C0 25.7746 0.511143 26.2857 1.14286 26.2857ZM2.28571 2.28571H37.7143V24H20.5714H18.2857H2.28571V2.28571Z" fill="white"/>
<path d="M12.9063 4.90626L6.04913 11.7634C5.60285 12.2097 5.60285 12.9331 6.04913 13.3794C6.27227 13.6026 6.56456 13.7143 6.85713 13.7143C7.1497 13.7143 7.44199 13.6026 7.66513 13.3794L14.5223 6.52227C14.9686 6.07598 14.9686 5.35255 14.5223 4.90626C14.076 4.45969 13.3526 4.45969 12.9063 4.90626Z" fill="white"/>
</svg>
