<svg width="16" height="28" viewBox="0 0 16 28" fill="none" xmlns="http://www.w3.org/2000/svg">
<path d="M13.543 0H1.997C0.892 0 0 0.896 0 1.999V25.445C0 26.547 0.892 27.442 1.997 27.442H13.543C14.646 27.442 15.54 26.547 15.54 25.445V1.999C15.54 0.896 14.646 0 13.543 0ZM4.921 1.214H10.621C10.765 1.214 10.882 1.429 10.882 1.695C10.882 1.961 10.765 2.177 10.621 2.177H4.921C4.776 2.177 4.661 1.961 4.661 1.695C4.661 1.429 4.776 1.214 4.921 1.214ZM7.771 25.469C7.068 25.469 6.496 24.897 6.496 24.193C6.496 23.489 7.068 22.919 7.771 22.919C8.472 22.919 9.044 23.489 9.044 24.193C9.044 24.897 8.472 25.469 7.771 25.469ZM14.044 21.1H1.497V3.373H14.044V21.1Z" fill="white"/>
</svg>
