<?xml version="1.0" encoding="iso-8859-1"?>
<!-- Generator: Adobe Illustrator 19.0.0, SVG Export Plug-In . SVG Version: 6.00 Build 0)  -->
<svg version="1.1" id="Layer_1" xmlns="http://www.w3.org/2000/svg" xmlns:xlink="http://www.w3.org/1999/xlink" x="0px" y="0px"
	 viewBox="0 0 512 512" style="enable-background:new 0 0 512 512;" xml:space="preserve">
<g>
	<g>
		<path d="M392.533,34.133H119.467C53.589,34.133,0,87.723,0,153.6v153.6c0,65.877,53.589,119.467,119.467,119.467H179.2
			c18.825,0,34.133-15.309,34.133-34.133c0-18.825-15.309-34.133-34.133-34.133H128c-32.93,0-59.733-26.795-59.733-59.733V162.133
			c0-32.939,26.803-59.733,59.733-59.733h256c32.93,0,59.733,26.795,59.733,59.733v136.533c0,32.939-26.803,59.733-59.733,59.733
			h-17.067v-42.667c0-3.234-1.826-6.187-4.719-7.637c-2.884-1.434-6.349-1.126-8.934,0.811l-102.4,76.8
			c-2.15,1.613-3.413,4.139-3.413,6.827s1.263,5.214,3.413,6.827l102.4,76.8c1.502,1.126,3.311,1.707,5.12,1.707
			c1.297,0,2.611-0.299,3.814-0.896c2.893-1.451,4.719-4.403,4.719-7.637v-42.667h25.6C458.411,426.667,512,373.077,512,307.2V153.6
			C512,87.723,458.411,34.133,392.533,34.133z"/>
	</g>
</g>
<g>
</g>
<g>
</g>
<g>
</g>
<g>
</g>
<g>
</g>
<g>
</g>
<g>
</g>
<g>
</g>
<g>
</g>
<g>
</g>
<g>
</g>
<g>
</g>
<g>
</g>
<g>
</g>
<g>
</g>
</svg>
