<svg width="512" height="444" viewBox="0 0 512 444" fill="none" xmlns="http://www.w3.org/2000/svg">
<path d="M392.533 0H119.467C53.589 0 0 53.59 0 119.467V273.067C0 338.944 53.589 392.534 119.467 392.534H179.2C198.025 392.534 213.333 377.225 213.333 358.401C213.333 339.576 198.024 324.268 179.2 324.268H128C95.07 324.268 68.267 297.473 68.267 264.535V128C68.267 95.061 95.07 68.267 128 68.267H384C416.93 68.267 443.733 95.062 443.733 128V264.533C443.733 297.472 416.93 324.266 384 324.266H366.933V281.599C366.933 278.365 365.107 275.412 362.214 273.962C359.33 272.528 355.865 272.836 353.28 274.773L250.88 351.573C248.73 353.186 247.467 355.712 247.467 358.4C247.467 361.088 248.73 363.614 250.88 365.227L353.28 442.027C354.782 443.153 356.591 443.734 358.4 443.734C359.697 443.734 361.011 443.435 362.214 442.838C365.107 441.387 366.933 438.435 366.933 435.201V392.534H392.533C458.411 392.534 512 338.944 512 273.067V119.467C512 53.59 458.411 0 392.533 0Z" fill="white"/>
</svg>
